<?xml version="1.0" encoding="utf-8"?>
<!-- Generator: Adobe Illustrator 16.0.0, SVG Export Plug-In . SVG Version: 6.00 Build 0)  -->
<!DOCTYPE svg PUBLIC "-//W3C//DTD SVG 1.1//EN" "http://www.w3.org/Graphics/SVG/1.1/DTD/svg11.dtd">
<svg version="1.1" id="Layer_1" xmlns="http://www.w3.org/2000/svg" xmlns:xlink="http://www.w3.org/1999/xlink" x="0px" y="0px"
	 width="100px" height="100px" viewBox="0 0 100 100" enable-background="new 0 0 100 100" xml:space="preserve">
<path fill="#F5F2E3" d="M62.925,93.344c-1.733-1.275-1.918-3.188-1.918-3.188L60.357,86H39.643l-0.652,4.152
	c0,0-0.181,1.916-1.914,3.19c-1.732,1.274-3.099,2.368-1.732,2.554c1.317,0.178,13.74,0.016,14.656,0
	c0.918,0.016,13.338,0.178,14.655,0C66.021,95.713,64.654,94.621,62.925,93.344z"/>
<path fill="#F5F2E3" d="M96.001,16H88.5h-8.394h-2.05h-7.056h-2.999h-7.067h-2.047H9.833H4.001c-2.209,0-4,1.791-4,4v58
	c0,2.209,1.791,4,4,4h92c2.209,0,4-1.791,4-4V20C100.001,17.791,98.21,16,96.001,16z M94.002,70h-88V22h3.832h23.063h2.048h8.421
	h2.022h9.3h5.431h6.586h5.58h6.59h5.427H88.5h5.502V70z"/>
<g>
	<path fill="#F5F2E3" d="M26.108,52.228c0,1.649,0.48,2.469,1.681,2.343c2.279-0.239,4.95-5.14,4.95-11.139
		c0-4.051-1.71-7.2-5.7-6.781c-4.98,0.523-6.301,4.262-6.301,7.441c0,2.88,1.47,4.405,1.591,4.483c0.33-0.126,0.45,0.072,0.45,0.373
		c0,0.779-0.75,1.848-1.44,1.921c-0.149,0.016-0.3,0.001-0.45-0.104c-0.09-0.051-2.49-2.018-2.49-6.248
		c0-5.459,3.48-9.635,8.73-10.188c5.581-0.586,8.011,3.778,8.011,8.608c0,8.52-4.231,13.613-7.531,13.961
		c-2.82,0.296-3.84-1.396-3.84-4.576V40.834c0-0.57-0.12-0.737-0.12-0.947c0-0.3,0.36-0.548,0.78-0.592
		c0.99-0.104,1.68,0.423,1.68,1.143V52.228z"/>
	<path fill="#F5F2E3" d="M39.338,51.526c0.42,0.977,1.23,1.731,2.791,1.567c2.339-0.246,3.3-2.297,3.66-4.165
		c0.27-1.378,1.95-0.955,1.83,0.107c-0.21,1.853-1.41,5.608-5.821,6.071c-2.73,0.287-5.31-1.631-5.31-5.381
		c0-3.81,2.28-6.9,4.59-7.143c1.68-0.177,2.7,0.946,2.7,2.746C43.778,47.55,42.249,50.351,39.338,51.526z M38.979,49.915
		c1.5-0.848,2.46-2.509,2.46-4.309c0-0.66-0.241-1.025-0.63-0.984c-1.471,0.154-1.92,3.501-1.86,4.756
		C38.949,49.558,38.979,49.734,38.979,49.915z"/>
	<path fill="#F5F2E3" d="M45.758,49.142c0.3-1.351,0.93-3.127,1.47-4.774c-0.3-0.418-0.479-0.849-0.479-1.359
		c0-1.021,1.739-2.553,2.549-2.638c0.721-0.076,1.08,0.427,1.08,1.236c0,0.87-0.69,1.933-0.72,2.116
		c1.41,2.342,3.24,3.229,3.24,6.079c0,0.36-0.061,0.756-0.15,1.096c1.411-0.448,2.13-1.424,2.461-2.419
		c0.209-0.592,0.419-0.854,0.689-0.882c0.51-0.054,1.08,0.666,1.08,1.085c0,0.601-0.689,1.813-1.381,2.456
		c-0.929,0.848-2.159,1.546-4.02,1.862c-0.72,0.705-1.71,1.26-2.94,1.389c-1.26,0.133-2.7-0.405-3.3-0.912
		c-1.471-1.256-0.661-2.932,0-3c0.6-0.063,3.33,1.39,4.83,1.233c0.33-0.426,0.66-1.15,0.66-1.9c0-1.89-1.11-3.034-2.16-4.002
		c-0.481,1.22-0.78,2.271-1.17,3.753C47.168,50.854,45.518,50.188,45.758,49.142z"/>
	<path fill="#F5F2E3" d="M55.147,36.605c0-1.05,0.81-1.914,1.8-2.018c1.051-0.11,1.83,0.587,1.83,1.637
		c0,0.99-0.779,1.912-1.83,2.022C55.957,38.35,55.147,37.595,55.147,36.605z M57.638,50.083c0,0.27,0,1.379,0.78,1.297
		c1.2-0.125,1.74-2.102,2.01-3.451c0.359-1.868,1.979-0.628,1.739,0.357c-0.54,2.036-1.709,4.859-4.289,5.131
		c-1.59,0.167-2.521-1.025-2.521-2.555v-8.01c0-0.57-0.12-0.737-0.12-0.947c0-0.301,0.359-0.549,0.78-0.593
		c0.989-0.104,1.62,0.43,1.62,1.15V50.083z"/>
	<path fill="#F5F2E3" d="M66.066,54.327v-3.149c-0.6,0.662-1.41,1.228-2.46,1.338c-2.34,0.246-3.57-1.604-3.57-4.155
		c0-5.01,3.48-8.435,7.141-8.82c0.811-0.085,1.38,0.335,1.38,1.115c0,0.51-0.09,0.7-0.39,0.731c-0.271,0.028-0.57,0-0.87,0.031
		c-2.28,0.24-4.95,2.47-4.95,6.791c0,1.56,0.66,2.391,1.71,2.281c1.2-0.126,1.801-1.78,2.01-3.001v-3.391
		c0-0.569-0.12-0.737-0.12-0.947c0-0.3,0.36-0.548,0.781-0.592c0.989-0.104,1.619,0.43,1.619,1.15v8.159
		c1.08-1.312,2.04-2.914,2.641-5.047c0.18-0.649,0.42-0.944,0.72-0.975c0.48-0.051,1.051,0.548,1.051,1.119
		c0,0.03,0,0.18-0.03,0.303c-1.021,3.588-2.761,5.54-4.381,7.121v5.189c0,3.15-1.59,4.427-3.12,4.588
		c-1.68,0.177-2.88-1.228-2.88-3.147C62.347,57.988,64.087,56.275,66.066,54.327z M66.066,59.816v-3.21
		c-0.959,1.092-1.62,2.301-1.62,4.101c0,0.931,0.301,1.618,0.78,1.568C66.188,62.174,66.066,60.387,66.066,59.816z"/>
	<path fill="#F5F2E3" d="M71.106,41.198c0-0.57-0.119-0.737-0.119-0.947c0-0.301,0.359-0.549,0.779-0.593
		c0.99-0.104,1.62,0.43,1.62,1.15v1.35c0.811-1.765,1.89-3.168,3.36-3.323c2.01-0.211,2.49,1.389,2.49,2.769v6.21
		c0,0.27,0,1.38,0.78,1.298c1.199-0.126,1.739-2.103,2.009-3.452c0.121-0.643,0.421-0.943,0.721-0.975
		c0.48-0.05,1.05,0.549,1.05,1.119c0,0.03,0,0.09-0.029,0.213c-0.511,2.033-1.711,4.86-4.29,5.13
		c-1.591,0.167-2.521-1.025-2.521-2.554v-6.09c0-0.931-0.061-1.704-0.631-1.644c-0.87,0.092-2.729,2.867-2.939,5.258v4.38
		c0,0.571,0.03,1.288-0.84,1.378c-0.601,0.063-1.44-0.059-1.44-1.169V41.198z"/>
</g>
</svg>
