<?xml version="1.0" encoding="utf-8"?>
<!-- Generator: Adobe Illustrator 16.0.0, SVG Export Plug-In . SVG Version: 6.00 Build 0)  -->
<!DOCTYPE svg PUBLIC "-//W3C//DTD SVG 1.1//EN" "http://www.w3.org/Graphics/SVG/1.1/DTD/svg11.dtd">
<svg version="1.1" id="Layer_1" xmlns="http://www.w3.org/2000/svg" xmlns:xlink="http://www.w3.org/1999/xlink" x="0px" y="0px"
	 width="100px" height="100px" viewBox="0 0 100 100" enable-background="new 0 0 100 100" xml:space="preserve">
<path fill="#F5F2E3" d="M62.925,93.344c-1.733-1.275-1.918-3.188-1.918-3.188L60.357,86H39.643l-0.652,4.152
	c0,0-0.181,1.916-1.914,3.19c-1.732,1.274-3.099,2.368-1.732,2.554c1.317,0.178,13.74,0.016,14.656,0
	c0.918,0.016,13.338,0.178,14.655,0C66.021,95.713,64.654,94.621,62.925,93.344z"/>
<path fill="#F5F2E3" d="M96.001,16H88.5h-8.394h-2.05h-7.056h-2.999h-7.067h-2.047H9.833H4.001c-2.209,0-4,1.791-4,4v58
	c0,2.209,1.791,4,4,4h92c2.209,0,4-1.791,4-4V20C100.001,17.791,98.21,16,96.001,16z M94.002,70h-88V22h3.832h23.063h2.048h8.421
	h2.022h9.3h5.431h6.586h5.58h6.59h5.427H88.5h5.502V70z"/>
<g>
	<path fill="#F5F2E3" d="M19.866,53.049c0,1.648,0.48,2.469,1.68,2.343c2.279-0.24,4.95-5.141,4.95-11.14
		c0-4.051-1.71-7.2-5.7-6.781c-4.98,0.523-6.3,4.262-6.3,7.441c0,2.88,1.469,4.405,1.59,4.483c0.329-0.125,0.45,0.072,0.45,0.373
		c0,0.779-0.75,1.849-1.44,1.921c-0.149,0.016-0.3,0.001-0.45-0.104c-0.09-0.05-2.49-2.017-2.49-6.248
		c0-5.459,3.48-9.635,8.73-10.188c5.581-0.586,8.01,3.778,8.01,8.608c0,8.52-4.23,13.614-7.531,13.96
		c-2.819,0.296-3.84-1.396-3.84-4.575v-11.49c0-0.57-0.119-0.738-0.119-0.948c0-0.3,0.36-0.547,0.78-0.592
		c0.99-0.104,1.68,0.423,1.68,1.143V53.049z"/>
	<path fill="#F5F2E3" d="M33.096,52.348c0.42,0.977,1.23,1.73,2.79,1.566c2.341-0.246,3.3-2.297,3.661-4.165
		c0.27-1.378,1.95-0.955,1.83,0.108c-0.209,1.852-1.41,5.608-5.82,6.072c-2.73,0.287-5.31-1.632-5.31-5.382
		c0-3.81,2.279-6.899,4.59-7.143c1.68-0.176,2.7,0.947,2.7,2.747C37.537,48.371,36.007,51.171,33.096,52.348z M32.737,50.735
		c1.5-0.848,2.46-2.508,2.46-4.308c0-0.66-0.241-1.025-0.63-0.984c-1.47,0.154-1.92,3.501-1.86,4.756
		C32.707,50.378,32.737,50.555,32.737,50.735z"/>
	<path fill="#F5F2E3" d="M39.546,44.68c0-0.57-0.12-0.738-0.12-0.948c0-0.301,0.359-0.548,0.78-0.592
		c0.989-0.104,1.62,0.43,1.62,1.15v8.069c0,0.57,0.12,0.918,0.66,0.861c1.47-0.154,3.15-2.371,3.15-5.852
		c0-2.43-0.84-2.971-1.23-3.23c-0.149-0.104-0.419-0.046-0.419-0.227c0-0.539,0.66-1.539,1.229-1.599
		c1.201-0.126,2.671,2.33,2.671,4.91c0,4.05-2.25,7.646-5.791,8.018c-1.92,0.202-2.55-1.052-2.55-2.671V44.68z"/>
	<path fill="#F5F2E3" d="M51.756,50.386c0.421,0.977,1.23,1.731,2.79,1.567c2.34-0.246,3.301-2.297,3.661-4.165
		c0.27-1.378,1.95-0.955,1.829,0.107c-0.209,1.852-1.41,5.608-5.82,6.071c-2.729,0.287-5.31-1.631-5.31-5.381
		c0-3.81,2.279-6.9,4.59-7.143c1.681-0.177,2.7,0.947,2.7,2.747C56.196,46.41,54.667,49.21,51.756,50.386z M51.396,48.774
		c1.5-0.848,2.46-2.509,2.46-4.309c0-0.66-0.24-1.025-0.63-0.984c-1.471,0.154-1.92,3.501-1.859,4.756
		C51.367,48.417,51.396,48.594,51.396,48.774z"/>
	<path fill="#F5F2E3" d="M66.486,48.028c-0.54,1.677-2.011,4.86-4.74,5.147c-2.31,0.242-3.54-1.218-3.54-3.588V35.938
		c0-2.25,1.23-3.969,2.729-4.127c2.641-0.277,2.67,2.87,2.67,4.55c0,4.41-2.729,10.757-3.119,11.157v1.74
		c0,1.2,0.479,2.02,1.59,1.904c1.38-0.146,2.399-2.144,2.67-3.491C65.106,45.863,66.727,47.043,66.486,48.028z M60.486,43.588
		c0.63-1.326,1.26-5.352,1.26-7.001c0-1.98-0.33-2.845-0.811-2.795c-0.33,0.035-0.449,0.767-0.449,1.247V43.588z"/>
	<path fill="#F5F2E3" d="M77.496,46.601c-0.36,1.658-1.59,3.137-3.631,3.351c-0.54,0.057-1.02,0.048-1.469-0.055
		c-0.751,1.369-1.892,2.359-3.601,2.539c-3.03,0.318-4.38-2.121-4.38-5.121c0-4.409,2.399-7.331,3.059-7.4
		c0.781-0.082,1.381,1.445,0.601,2.037c-0.479,0.77-1.38,1.975-1.38,4.945c0,2.52,0.99,3.676,2.16,3.553
		c0.84-0.088,1.38-0.595,1.771-1.327c-1.41-1.051-2.16-2.953-2.16-5.113c0-1.89,0.81-3.595,2.43-3.765
		c1.41-0.148,2.551,1.862,2.551,4.772c0,1.11-0.121,2.232-0.421,3.284c0.21,0.038,0.391,0.019,0.601-0.003
		c1.29-0.136,1.98-1.198,2.16-2.387C75.906,45.208,77.886,44.88,77.496,46.601z M71.195,47.113c0.061-0.487,0.091-0.94,0.091-1.39
		c0-2.04-0.091-3.53-0.721-3.464c-0.33,0.035-0.51,0.533-0.51,1.463C70.056,45.073,70.505,46.286,71.195,47.113z"/>
	<path fill="#F5F2E3" d="M78.065,51.311v9.75c0,1.11-0.991,1.424-1.59,1.487c-0.601,0.062-0.69-0.288-0.69-0.738V40.871
		c0-0.87-0.301-0.899-0.301-1.109s0.54-0.387,0.961-0.431c0.959-0.101,1.59,0.434,1.62,1.12c0.63-0.965,1.469-1.744,2.729-1.876
		c2.34-0.246,3.48,1.945,3.48,4.915c0,1.68-0.33,3.334-0.78,4.461c1.98-0.298,2.43-1.125,3.121-2.608
		c0.27-0.599,0.419-0.854,0.689-0.882c0.51-0.053,1.08,0.606,1.08,1.026c0,1.38-1.86,4.005-5.85,4.424
		c-0.811,0.955-1.98,1.587-3.03,1.699C78.785,51.685,78.305,51.556,78.065,51.311z M78.065,43.391v6.479
		c0.419-0.674,1.44-1.081,2.82-1.346c0.72-1.125,1.05-3.2,1.05-4.311c0-2.76-0.87-3.658-1.89-3.551
		C79.175,40.754,78.396,41.887,78.065,43.391z"/>
</g>
</svg>
