<?xml version="1.0" encoding="utf-8"?>
<!-- Generator: Adobe Illustrator 16.0.0, SVG Export Plug-In . SVG Version: 6.00 Build 0)  -->
<!DOCTYPE svg PUBLIC "-//W3C//DTD SVG 1.1//EN" "http://www.w3.org/Graphics/SVG/1.1/DTD/svg11.dtd">
<svg version="1.1" id="Layer_1" xmlns="http://www.w3.org/2000/svg" xmlns:xlink="http://www.w3.org/1999/xlink" x="0px" y="0px"
	 width="100px" height="100px" viewBox="0 0 100 100" enable-background="new 0 0 100 100" xml:space="preserve">
<path fill="#F5F2E3" d="M62.925,93.344c-1.733-1.275-1.918-3.188-1.918-3.188L60.357,86H39.643l-0.652,4.152
	c0,0-0.181,1.916-1.914,3.19c-1.732,1.274-3.099,2.368-1.732,2.554c1.317,0.178,13.74,0.016,14.656,0
	c0.918,0.016,13.338,0.178,14.655,0C66.021,95.713,64.654,94.621,62.925,93.344z"/>
<path fill="#F5F2E3" d="M36.021,65.25c-0.48,0-0.936-0.167-1.316-0.484c-0.407-0.338-0.647-0.776-0.694-1.265l-0.681-4.516
	c-0.486-0.173-0.998-0.386-1.531-0.639l-3.458,2.608c-0.25,0.227-0.671,0.47-1.323,0.47c-0.474,0-0.936-0.169-1.335-0.489
	c-4.852-4.477-5.249-5.482-5.249-6.195c0-0.41,0.14-0.818,0.416-1.215c0.238-0.333,0.711-0.945,1.426-1.844
	c0.483-0.607,0.884-1.121,1.203-1.543c-0.302-0.618-0.558-1.213-0.766-1.782l-4.549-0.718c-0.43-0.039-0.863-0.274-1.191-0.672
	c-0.305-0.368-0.466-0.817-0.466-1.296v-6.262c0-0.441,0.145-0.863,0.432-1.252c0.414-0.56,0.902-0.72,1.239-0.756l4.603-0.713
	c0.184-0.503,0.408-1.032,0.67-1.58c-0.706-0.962-1.595-2.085-2.65-3.348l-0.042-0.049l-0.035-0.055
	c-0.26-0.41-0.393-0.818-0.393-1.214c0-0.513,0.167-0.975,0.485-1.336c0.477-0.658,1.419-1.683,2.826-3.065
	c1.928-1.896,2.744-2.285,3.375-2.285c0.457,0,0.89,0.141,1.285,0.418l3.437,2.688c0.487-0.23,1.008-0.446,1.56-0.645
	c0.236-2.18,0.479-3.729,0.74-4.727c0.29-1,1.01-1.56,1.982-1.56h6.295c0.48,0,0.936,0.168,1.317,0.485
	c0.405,0.337,0.645,0.773,0.693,1.262l0.68,4.519c0.486,0.172,0.998,0.386,1.531,0.639l3.502-2.642
	c0.306-0.271,0.768-0.438,1.28-0.438c0.478,0,0.927,0.164,1.333,0.488c4.854,4.48,5.251,5.486,5.251,6.198
	c0,0.414-0.141,0.823-0.418,1.218c-0.293,0.391-0.772,1.005-1.455,1.872c-0.469,0.593-0.855,1.1-1.156,1.513
	c0.297,0.644,0.546,1.238,0.745,1.776l4.547,0.688c0.493,0.096,0.893,0.337,1.197,0.707c0.305,0.37,0.466,0.818,0.466,1.297v6.262
	c0,0.441-0.145,0.862-0.43,1.251c-0.415,0.561-0.903,0.721-1.24,0.757l-4.603,0.714c-0.185,0.504-0.409,1.033-0.671,1.58
	c0.702,0.958,1.592,2.081,2.65,3.347c0.328,0.463,0.469,0.884,0.469,1.318c0,0.629-0.247,1.044-0.477,1.293
	c-0.553,0.715-1.485,1.725-2.846,3.085c-1.913,1.914-2.728,2.307-3.363,2.307c-0.46,0-0.893-0.141-1.287-0.418l-3.44-2.69
	c-0.509,0.235-1.029,0.445-1.556,0.627c-0.234,2.17-0.476,3.726-0.736,4.742c-0.292,1.006-1.013,1.564-1.984,1.564H36.021z
	 M39.17,34.926c-2.136,0-3.909,0.734-5.42,2.245c-1.511,1.512-2.245,3.284-2.245,5.419s0.734,3.907,2.246,5.419
	c1.511,1.511,3.284,2.246,5.419,2.246c2.135,0,3.908-0.734,5.417-2.246c1.512-1.511,2.247-3.283,2.247-5.419
	s-0.735-3.908-2.246-5.418C43.078,35.66,41.306,34.926,39.17,34.926z"/>
<g>
	<path fill="#F5F2E3" d="M71.001,16c-0.163,0.219-0.323,0.43-0.491,0.664c-0.449-0.045-0.789-0.067-1.014-0.067
		c-0.227,0-0.564,0.022-1.016,0.067c-0.117-0.177-0.285-0.407-0.479-0.664h-7.067c0.212,0.792,0.751,2.151,1.622,4.082
		c-0.383,0.52-0.721,1.106-1.014,1.76c-0.52,0.052-0.984,0.105-1.424,0.158h6.586c0.803-0.702,1.729-1.072,2.789-1.072
		c1.062,0,1.988,0.37,2.791,1.072h6.59c-0.439-0.053-0.905-0.106-1.426-0.158c-0.293-0.654-0.631-1.241-1.016-1.76
		c0.871-1.931,1.412-3.29,1.623-4.082H71.001z"/>
	<path fill="#F5F2E3" d="M96.001,16H80.106c-0.108,0.634-0.436,1.681-1.404,3.902c0.012,0.021,0.023,0.041,0.035,0.062
		c2.94,0.311,4.979,0.671,5.564,2.037h9.7v48h-88V22h26.895c0.058-0.281,0.116-0.538,0.175-0.765l0.007-0.026l0.007-0.025
		c0.404-1.391,1.529-2.255,2.936-2.255h6.295c0.717,0,1.394,0.248,1.957,0.716c0.585,0.486,0.953,1.147,1.042,1.867L45.388,22h9.3
		c0.586-1.366,2.625-1.726,5.566-2.037c0.011-0.02,0.022-0.04,0.034-0.06c-0.964-2.211-1.292-3.27-1.401-3.903H4.001
		c-2.209,0-4,1.791-4,4v58c0,2.209,1.791,4,4,4h92c2.209,0,4-1.791,4-4V20C100.001,17.791,98.21,16,96.001,16z"/>
	<path fill="#F5F2E3" d="M42.316,20.929h-6.295c-0.519,0-0.857,0.271-1.015,0.812c-0.021,0.08-0.042,0.171-0.062,0.259h8.421
		l-0.034-0.225c-0.022-0.225-0.135-0.423-0.338-0.592S42.564,20.929,42.316,20.929z"/>
</g>
<path fill="#F5F2E3" d="M73.571,58.132c-0.342,0.019-0.62-0.148-1.503-1.127c-0.419-0.463-0.738-0.83-0.967-1.107
	c-0.132,0.017-0.239,0.027-0.323,0.032c-0.085,0.004-0.193,0.006-0.325,0.004c-0.196,0.301-0.473,0.701-0.84,1.209
	c-0.77,1.07-1.027,1.268-1.367,1.286c-0.207,0.012-0.207,0.012-2.976-1.399l-0.029-0.015l-0.027-0.018
	c-0.221-0.145-0.355-0.371-0.369-0.622c-0.018-0.308,0.069-0.893,0.817-2.863c-0.131-0.178-0.25-0.362-0.36-0.55
	c-2.695-0.133-3.339-0.342-3.378-1.036l-0.162-2.912c-0.039-0.694,0.577-0.973,3.241-1.405c0.091-0.206,0.189-0.401,0.296-0.587
	c-0.962-1.875-1.112-2.446-1.13-2.752c-0.014-0.25,0.094-0.49,0.297-0.658l0.038-0.032l0.045-0.026
	c0.055-0.032,0.28-0.178,0.677-0.439c0.417-0.274,0.813-0.533,1.19-0.778c0.623-0.404,0.714-0.456,0.906-0.466
	c0.338-0.019,0.615,0.146,1.499,1.114c0.42,0.458,0.74,0.821,0.969,1.1c0.133-0.017,0.239-0.027,0.325-0.032
	c0.085-0.005,0.195-0.006,0.33-0.004c0.597-0.914,1.153-1.66,1.655-2.221l0.096-0.107l0.351-0.141l0.101-0.005
	c0.219-0.012,0.248-0.014,2.974,1.379l0.061,0.035c0.22,0.146,0.354,0.372,0.367,0.621c0.018,0.306-0.071,0.889-0.817,2.86
	c0.126,0.173,0.246,0.358,0.359,0.552c2.694,0.133,3.338,0.342,3.376,1.036l0.163,2.912c0.039,0.694-0.577,0.974-3.24,1.405
	c-0.09,0.2-0.188,0.396-0.298,0.586c0.963,1.878,1.115,2.448,1.133,2.755c0.014,0.252-0.095,0.491-0.3,0.659l-0.025,0.021
	l-0.027,0.018C73.777,58.12,73.777,58.12,73.571,58.132z M70.33,47.942c-0.556,0.031-1.015,0.257-1.402,0.69
	c-0.387,0.434-0.562,0.917-0.53,1.472c0.031,0.569,0.254,1.032,0.681,1.414s0.91,0.551,1.48,0.52
	c0.572-0.032,1.035-0.255,1.416-0.681c0.382-0.428,0.552-0.912,0.52-1.481c-0.031-0.556-0.258-1.016-0.69-1.404
	C71.369,48.084,70.889,47.911,70.33,47.942z"/>
<path fill="#F5F2E3" d="M78.109,20.905c-0.166-0.326-0.344-0.636-0.533-0.928c1.39-3.129,1.584-4.068,1.584-4.566
	c0-0.407-0.197-0.786-0.542-1.041l-0.091-0.06c-4.294-2.505-4.348-2.505-4.699-2.505h-0.161l-0.582,0.193l-0.167,0.167
	c-0.877,0.877-1.824,2.01-2.885,3.453c-0.219-0.015-0.398-0.022-0.537-0.022s-0.314,0.007-0.529,0.022
	c-0.346-0.47-0.832-1.089-1.472-1.872c-1.347-1.647-1.782-1.941-2.331-1.941c-0.3,0-0.441,0.063-1.513,0.674
	c-0.633,0.363-1.301,0.747-2,1.154c-0.657,0.381-1.034,0.598-1.132,0.647l-0.076,0.038l-0.068,0.05
	c-0.345,0.253-0.543,0.633-0.543,1.043c0,0.5,0.194,1.44,1.582,4.566c-0.188,0.293-0.366,0.603-0.531,0.927
	c-4.36,0.46-5.385,0.858-5.385,1.987v2.91c0.895,0.966,1.983,2.537,2.877,3.447c0.577,0.083,1.731,0.286,2.508,0.368
	c0.161,0.314,0.339,0.623,0.533,0.924c-1.39,3.129-1.584,4.07-1.584,4.57c0,0.407,0.197,0.787,0.54,1.041l0.044,0.033l0.048,0.027
	c4.36,2.539,4.36,2.539,4.7,2.539c0.553,0,0.988-0.296,2.334-1.962c0.64-0.791,1.125-1.414,1.47-1.884
	c0.214,0.015,0.39,0.022,0.528,0.022c0.137,0,0.313-0.007,0.527-0.022c0.346,0.472,0.832,1.094,1.47,1.884
	c1.344,1.666,1.78,1.962,2.335,1.962c0.338,0,0.338,0,4.698-2.539l0.048-0.027l0.044-0.033c0.345-0.255,0.542-0.634,0.542-1.041
	c0-0.498-0.194-1.437-1.586-4.57c0.194-0.301,0.372-0.61,0.534-0.924c4.359-0.46,5.384-0.857,5.384-1.986v-4.738
	C83.492,21.763,82.469,21.366,78.109,20.905z M71.852,27.617c-0.656,0.657-1.428,0.976-2.357,0.976
	c-0.929,0-1.699-0.319-2.355-0.977c-0.657-0.657-0.977-1.428-0.977-2.355c0-0.905,0.325-1.67,0.994-2.339
	c0.668-0.668,1.434-0.993,2.338-0.993c0.905,0,1.671,0.325,2.34,0.993c0.669,0.669,0.994,1.435,0.994,2.34
	C72.828,26.188,72.509,26.959,71.852,27.617z"/>
</svg>
