<?xml version="1.0" encoding="utf-8"?>
<!-- Generator: Adobe Illustrator 16.0.0, SVG Export Plug-In . SVG Version: 6.00 Build 0)  -->
<!DOCTYPE svg PUBLIC "-//W3C//DTD SVG 1.1//EN" "http://www.w3.org/Graphics/SVG/1.1/DTD/svg11.dtd">
<svg version="1.1" id="Layer_1" xmlns="http://www.w3.org/2000/svg" xmlns:xlink="http://www.w3.org/1999/xlink" x="0px" y="0px"
	 width="100px" height="100px" viewBox="0 0 100 100" enable-background="new 0 0 100 100" xml:space="preserve">
<path fill="#F5F2E3" d="M62.925,93.344c-1.733-1.275-1.918-3.188-1.918-3.188L60.357,86H39.643l-0.652,4.152
	c0,0-0.181,1.916-1.914,3.189c-1.732,1.274-3.099,2.368-1.732,2.555c1.317,0.178,13.74,0.016,14.656,0
	c0.918,0.016,13.338,0.178,14.655,0C66.021,95.713,64.654,94.621,62.925,93.344z"/>
<g>
	<path fill="#F5F2E3" d="M41.354,15.281h19.922c1.105,0,2.213-0.885,2.213-2.213v-2.213c0-1.328-0.885-2.213-2.213-2.213h-4.428
		V6.427C56.849,3.992,54.856,2,52.423,2h-2.216c-2.434,0-4.426,1.992-4.426,4.427v2.214h-4.427c-1.106,0-2.213,0.885-2.213,2.213
		v2.213C39.141,14.396,40.026,15.281,41.354,15.281z M51.315,6.427c0.664,0,1.107,0.443,1.107,1.107s-0.443,1.107-1.107,1.107
		c-0.665,0-1.108-0.443-1.108-1.107S50.65,6.427,51.315,6.427z"/>
	<path fill="#F5F2E3" d="M67.917,10.854h-2.215l0,0v2.213c0,2.435-1.992,4.427-4.426,4.427H41.354c-2.435,0-4.427-1.992-4.427-4.427
		v-2.213l0,0h-2.214c-2.435,0-4.427,1.992-4.427,4.427v46.485c0,2.434,1.992,4.426,4.427,4.426h33.204
		c2.434,0,4.426-1.992,4.426-4.426V15.281C72.343,12.846,70.351,10.854,67.917,10.854z M49.102,51.361l-1.549,1.549l-3.985-3.985
		l-3.984,3.985l-1.549-1.549l3.984-3.985l-3.984-3.984l1.549-1.55l3.984,3.984l3.985-3.984l1.549,1.55l-3.985,3.984L49.102,51.361z
		 M60.169,61.766c-3.1,0-5.533-2.436-5.533-5.535c0-2.656,1.992-4.869,4.426-5.533v-5.091L41.354,27.898v7.305h-2.213V24.135h11.066
		v2.214h-7.303l18.373,18.593v5.756c2.434,0.443,4.426,2.656,4.426,5.533C65.702,59.33,63.269,61.766,60.169,61.766z M66.81,33.652
		l-1.549,1.551l-3.984-3.985l-3.984,3.985l-1.551-1.551l3.984-3.983l-3.984-3.984l1.551-1.55l3.984,3.984l3.984-3.984l1.549,1.55
		l-3.984,3.984L66.81,33.652z"/>
	<circle fill="#F5F2E3" cx="60.169" cy="56.23" r="3.32"/>
</g>
<path fill="#F5F2E3" d="M96.001,16h-8.672h-3.813h-8.551v6h3.037h9.327h6.673v48h-88V22h21.332v-6H4.001c-2.209,0-4,1.791-4,4v58
	c0,2.209,1.791,4,4,4h92c2.209,0,4-1.791,4-4V20C100.001,17.791,98.21,16,96.001,16z"/>
</svg>
