<?xml version="1.0" encoding="utf-8"?>
<!-- Generator: Adobe Illustrator 16.0.0, SVG Export Plug-In . SVG Version: 6.00 Build 0)  -->
<!DOCTYPE svg PUBLIC "-//W3C//DTD SVG 1.1//EN" "http://www.w3.org/Graphics/SVG/1.1/DTD/svg11.dtd">
<svg version="1.1" id="Layer_1" xmlns="http://www.w3.org/2000/svg" xmlns:xlink="http://www.w3.org/1999/xlink" x="0px" y="0px"
	 width="100px" height="100px" viewBox="0 0 100 100" enable-background="new 0 0 100 100" xml:space="preserve">
<path fill="#F5F2E3" d="M62.925,93.344c-1.733-1.275-1.918-3.188-1.918-3.188L60.357,86H39.643l-0.652,4.152
	c0,0-0.181,1.916-1.914,3.19c-1.732,1.274-3.099,2.368-1.732,2.554c1.317,0.178,13.74,0.016,14.656,0
	c0.918,0.016,13.338,0.178,14.655,0C66.021,95.713,64.654,94.621,62.925,93.344z"/>
<path fill="#F5F2E3" d="M96.001,16H88.5h-8.394h-2.05h-7.056h-2.999h-7.067h-2.047H9.833H4.001c-2.209,0-4,1.791-4,4v58
	c0,2.209,1.791,4,4,4h92c2.209,0,4-1.791,4-4V20C100.001,17.791,98.21,16,96.001,16z M94.002,70h-88V22h3.832h23.063h2.048h8.421
	h2.022h9.3h5.431h6.586h5.58h6.59h5.427H88.5h5.502V70z"/>
<g>
	<path fill="#F5F2E3" d="M21.244,42.245l-0.57,0.06c-2.49,0.262-4.5-0.997-4.5-3.307c0-1.56,1.11-2.966,2.73-3.137
		c2.19-0.23,3.451,1.378,4.11,3.408c0.3-0.211,0.57-0.51,0.84-0.838c0.09-0.28,0.209-0.412,0.36-0.428
		c0.419-0.044,0.959,0.709,0.959,1.519c0,0.75-0.689,1.423-1.68,1.947c0.12,0.827,0.181,1.63,0.181,2.351
		c0,7.588-3.3,11.386-6.811,11.755c-4.381,0.46-6.66-3.71-6.66-9.08c0-10.2,6.06-13.177,6.3-13.292
		c0.09-0.04,0.209-0.082,0.33-0.094c0.659-0.069,1.05,0.789,1.05,1.449c0,0.39-0.121,0.703-0.391,0.731
		c-0.06,0.006-0.089,0.009-0.149-0.015c-1.05,0.71-4.74,2.988-4.74,10.668c0,5.43,2.22,7.596,4.35,7.372
		c2.49-0.262,4.35-3.637,4.38-9.25C21.333,43.496,21.303,42.869,21.244,42.245z M20.944,40.207c-0.3-1.348-0.9-2.305-1.831-2.207
		c-0.599,0.063-0.75,0.499-0.75,0.829c0,0.72,0.66,1.58,2.22,1.417L20.944,40.207z"/>
	<path fill="#F5F2E3" d="M28.203,54.234v9.748c0,1.11-0.991,1.425-1.59,1.487c-0.6,0.063-0.69-0.287-0.69-0.737V43.794
		c0-0.87-0.3-0.899-0.3-1.109s0.54-0.387,0.96-0.431c0.959-0.101,1.59,0.434,1.62,1.12c0.63-0.966,1.47-1.745,2.73-1.877
		c2.339-0.246,3.48,1.945,3.48,4.915c0,1.68-0.331,3.334-0.78,4.462c1.98-0.298,2.43-1.125,3.121-2.608
		c0.27-0.599,0.419-0.854,0.689-0.882c0.51-0.054,1.08,0.606,1.08,1.026c0,1.38-1.86,4.005-5.85,4.424
		c-0.81,0.956-1.98,1.588-3.03,1.698C28.922,54.607,28.443,54.479,28.203,54.234z M28.203,46.314v6.479
		c0.419-0.674,1.44-1.081,2.82-1.346c0.72-1.125,1.05-3.2,1.05-4.311c0-2.76-0.87-3.659-1.89-3.552
		C29.313,43.677,28.533,44.81,28.203,46.314z"/>
	<path fill="#F5F2E3" d="M36.752,38.635v-5.069c0-0.87-0.3-0.898-0.3-1.108s0.54-0.387,0.961-0.431
		c0.989-0.104,1.62,0.429,1.62,1.149v5.25c1.83-0.192,3.931-0.443,5.971-0.748c0.84-0.987,0.569,1.921-0.21,2.032
		c-2.4,0.312-4.171,0.499-5.761,0.666v9.51c0,0.96,0.39,1.339,1.02,1.273c1.2-0.126,1.74-2.103,2.01-3.452
		c0.119-0.643,0.42-0.943,0.72-0.975c0.479-0.05,1.05,0.549,1.05,1.119c0,0.03,0,0.09-0.03,0.213c-0.51,2.033-1.709,4.86-4.29,5.13
		c-1.62,0.171-2.76-0.67-2.76-3.04v-9.539c-1.32,0.139-2.07,0.157-2.07,0.157c-0.96,0.101-1.5-1.852-0.63-1.944
		C34.053,38.829,35.132,38.776,36.752,38.635z"/>
	<path fill="#F5F2E3" d="M41.973,35.836c0-1.05,0.81-1.914,1.799-2.018c1.052-0.11,1.831,0.587,1.831,1.637
		c0,0.99-0.779,1.912-1.831,2.022C42.783,37.581,41.973,36.826,41.973,35.836z M44.463,49.314c0,0.27,0,1.38,0.779,1.299
		c1.2-0.127,1.74-2.104,2.011-3.452c0.359-1.868,1.979-0.628,1.739,0.357c-0.54,2.036-1.709,4.858-4.29,5.13
		c-1.59,0.168-2.521-1.025-2.521-2.554v-8.01c0-0.57-0.119-0.737-0.119-0.947c0-0.301,0.359-0.548,0.78-0.593
		c0.989-0.104,1.62,0.43,1.62,1.15V49.314z"/>
	<path fill="#F5F2E3" d="M60.992,50.937c-1.59,0.167-2.52-1.025-2.52-2.554v-6.09c0-0.931-0.061-1.704-0.57-1.65
		c-0.811,0.085-2.52,2.845-2.699,5.233v4.38c0,0.571,0.029,1.287-0.84,1.378c-0.602,0.063-1.441-0.059-1.441-1.169v-7.589
		c0-0.931-0.061-1.704-0.57-1.65c-0.809,0.085-2.52,2.845-2.7,5.233v4.38c0,0.57,0.03,1.286-0.84,1.378
		c-0.601,0.063-1.44-0.059-1.44-1.169v-9.509c0-0.57-0.119-0.737-0.119-0.947c0-0.301,0.359-0.548,0.779-0.593
		c0.99-0.104,1.62,0.431,1.62,1.15v1.26c0.78-1.702,1.831-3.072,3.18-3.214c1.801-0.189,2.311,1.227,2.371,2.571
		c0.75-1.669,1.799-3.01,3.148-3.151c1.951-0.205,2.4,1.398,2.4,2.778v6.21c0,0.27,0,1.38,0.781,1.298
		c1.199-0.126,1.738-2.103,2.01-3.451c0.119-0.643,0.42-0.944,0.721-0.976c0.479-0.05,1.049,0.549,1.049,1.119
		c0,0.03,0,0.09-0.029,0.213C64.742,47.842,63.572,50.666,60.992,50.937z"/>
	<path fill="#F5F2E3" d="M63.451,33.579c0-1.05,0.811-1.914,1.801-2.018c1.051-0.11,1.83,0.587,1.83,1.637
		c0,0.99-0.779,1.912-1.83,2.022C64.262,35.324,63.451,34.569,63.451,33.579z M65.941,47.057c0,0.27,0,1.38,0.781,1.298
		c1.199-0.126,1.74-2.103,2.01-3.452c0.359-1.868,1.98-0.628,1.74,0.357c-0.541,2.036-1.709,4.859-4.291,5.13
		c-1.59,0.167-2.52-1.025-2.52-2.554v-8.01c0-0.57-0.119-0.737-0.119-0.947c0-0.301,0.359-0.549,0.779-0.593
		c0.99-0.104,1.619,0.43,1.619,1.15V47.057z"/>
	<path fill="#F5F2E3" d="M74.793,51.076c-0.33-1.645-1.141-3.06-2.971-2.868l-0.42-1.606c2.1-0.82,4.35-2.917,4.35-5.917
		c0-1.021-0.539-1.863-1.709-1.74c-1.5,0.157-2.432,1.395-3.541,6.161c-0.42,1.754-1.83,0.163-1.68-0.603
		c0.75-4.008,1.74-7.173,5.221-7.539c2.52-0.265,3.99,1.41,3.99,3.72c0,2.521-1.711,4.71-3.84,5.894
		c1.139,0.51,1.949,1.234,2.459,2.501c1.17-1.353,2.25-3.027,2.881-5.312c0.18-0.649,0.42-0.944,0.721-0.975
		c0.479-0.051,1.049,0.549,1.049,1.119c0,0.03,0,0.18-0.029,0.303c-0.99,3.404-2.582,5.341-4.141,6.855
		c0.121,0.797,0.18,1.751,0.18,2.861c0,3.149-0.811,6.895-3.541,7.182c-1.68,0.177-2.879-1.228-2.879-3.147
		C70.893,54.847,72.752,53.121,74.793,51.076z M75.002,53.125c-1.17,1.203-2.01,2.49-2.01,4.53c0,0.931,0.301,1.618,0.779,1.568
		c1.141-0.12,1.262-3.013,1.262-4.633C75.033,54.171,75.033,53.661,75.002,53.125z"/>
	<path fill="#F5F2E3" d="M82.111,44.877c0.42,0.976,1.23,1.731,2.789,1.567c2.34-0.246,3.301-2.297,3.662-4.165
		c0.27-1.378,1.949-0.955,1.83,0.107c-0.211,1.852-1.412,5.608-5.822,6.072c-2.729,0.287-5.309-1.631-5.309-5.381
		c0-3.81,2.279-6.9,4.59-7.143c1.68-0.177,2.699,0.947,2.699,2.747C86.551,40.901,85.021,43.701,82.111,44.877z M81.752,43.266
		c1.5-0.848,2.459-2.509,2.459-4.309c0-0.66-0.24-1.025-0.629-0.984c-1.471,0.155-1.92,3.501-1.861,4.756
		C81.721,42.908,81.752,43.085,81.752,43.266z"/>
</g>
</svg>
